<?xml version="1.0" encoding="UTF-8" standalone="no"?>
<!-- Created with Inkscape (http://www.inkscape.org/) -->
<svg
   xmlns:dc="http://purl.org/dc/elements/1.1/"
   xmlns:cc="http://web.resource.org/cc/"
   xmlns:rdf="http://www.w3.org/1999/02/22-rdf-syntax-ns#"
   xmlns:svg="http://www.w3.org/2000/svg"
   xmlns="http://www.w3.org/2000/svg"
   xmlns:sodipodi="http://sodipodi.sourceforge.net/DTD/sodipodi-0.dtd"
   xmlns:inkscape="http://www.inkscape.org/namespaces/inkscape"
   width="504.04733"
   height="587.83118"
   id="svg2465"
   sodipodi:version="0.32"
   inkscape:version="0.45.1"
   version="1.0"
   sodipodi:docbase="C:\Documents and Settings\Jack\Desktop"
   sodipodi:docname="drawing.svg"
   inkscape:output_extension="org.inkscape.output.svg.inkscape">
  <defs
     id="defs2467" />
  <sodipodi:namedview
     id="base"
     pagecolor="#ffffff"
     bordercolor="#666666"
     borderopacity="1.0"
     gridtolerance="10000"
     guidetolerance="10"
     objecttolerance="10"
     inkscape:pageopacity="0.0"
     inkscape:pageshadow="2"
     inkscape:zoom="0.35"
     inkscape:cx="375"
     inkscape:cy="520"
     inkscape:document-units="px"
     inkscape:current-layer="layer1"
     inkscape:window-width="744"
     inkscape:window-height="573"
     inkscape:window-x="48"
     inkscape:window-y="0" />
  <metadata
     id="metadata2470">
    <rdf:RDF>
      <cc:Work
         rdf:about="">
        <dc:format>image/svg+xml</dc:format>
        <dc:type
           rdf:resource="http://purl.org/dc/dcmitype/StillImage" />
      </cc:Work>
    </rdf:RDF>
  </metadata>
  <g
     inkscape:label="Layer 1"
     inkscape:groupmode="layer"
     id="layer1"
     transform="translate(-150.83348,-192.7323)">
    <g
       transform="matrix(3.4464775e-2,0,0,3.4464775e-2,38.82296,-1.13206)"
       visibility="visible"
       id="page1"
       style="visibility:visible">
      <desc
         id="desc58">Slide</desc>
      <g
         id="g60">
        <desc
           id="desc62">Drawing</desc>
        <g
           id="g64">
          <g
             id="g66">
            <g
               style="font-size:1270px;font-weight:700;font-family:Courier New embedded"
               id="g68">
              <g
                 style="fill:#000000;stroke:none"
                 id="g70">
                <text
                   id="text72">
                  <tspan
                     x="4119"
                     y="22681"
                     id="tspan74">x</tspan>
                </text>
              </g>
            </g>
          </g>
        </g>
      </g>
      <g
         id="g76">
        <desc
           id="desc78">Drawing</desc>
        <g
           id="g80">
          <g
             id="g82">
            <g
               style="font-size:1270px;font-weight:700;font-family:Courier New embedded"
               id="g84">
              <g
                 style="fill:#000000;stroke:none"
                 id="g86">
                <text
                   id="text88">
                  <tspan
                     x="12044"
                     y="21296"
                     id="tspan90">Q</tspan>
                </text>
              </g>
            </g>
          </g>
        </g>
      </g>
      <g
         id="g92">
        <desc
           id="desc94">Drawing</desc>
        <g
           id="g96">
          <g
             id="g98">
            <g
               style="font-size:1270px;font-weight:700;font-family:Courier New embedded"
               id="g100">
              <g
                 style="fill:#000000;stroke:none"
                 id="g102">
                <text
                   id="text104">
                  <tspan
                     x="16369"
                     y="18346"
                     id="tspan106">y</tspan>
                </text>
              </g>
            </g>
          </g>
        </g>
      </g>
      <g
         id="g108">
        <desc
           id="desc110">Drawing</desc>
        <g
           id="g112">
          <g
             id="g114">
            <g
               style="font-size:1270px;font-weight:700;font-family:Courier New embedded"
               id="g116">
              <g
                 style="fill:#000000;stroke:none"
                 id="g118">
                <text
                   id="text120">
                  <tspan
                     x="6594"
                     y="17371"
                     id="tspan122">O</tspan>
                </text>
              </g>
            </g>
          </g>
        </g>
      </g>
      <g
         id="g124">
        <desc
           id="desc126">Drawing</desc>
        <g
           id="g128">
          <g
             id="g130">
            <g
               style="font-size:1270px;font-weight:700;font-family:Courier New embedded"
               id="g132">
              <g
                 style="fill:#000000;stroke:none"
                 id="g134">
                <text
                   id="text136">
                  <tspan
                     x="12319"
                     y="12171"
                     id="tspan138">P</tspan>
                </text>
              </g>
            </g>
          </g>
        </g>
      </g>
      <g
         id="g140">
        <desc
           id="desc142">Drawing</desc>
        <g
           id="g144">
          <g
             id="g146">
            <g
               style="font-size:1270px;font-weight:700;font-family:Courier New embedded"
               id="g148">
              <g
                 style="fill:#000000;stroke:none"
                 id="g150">
                <text
                   id="text152">
                  <tspan
                     x="6819"
                     y="8171"
                     id="tspan154">Z</tspan>
                </text>
              </g>
            </g>
          </g>
        </g>
      </g>
      <g
         id="g156">
        <desc
           id="desc158">Drawing</desc>
        <g
           id="g160">
          <g
             id="g162">
            <g
               style="font-size:1270px;font-weight:700;font-family:Lucida Sans Typewriter embedded"
               id="g164">
              <g
                 style="fill:#000000;stroke:none"
                 id="g166">
                <text
                   id="text168">
                  <tspan
                     x="10044"
                     y="18815"
                     id="tspan170">ρ</tspan>
                </text>
              </g>
            </g>
          </g>
        </g>
      </g>
      <g
         id="g172">
        <desc
           id="desc174">Drawing</desc>
        <g
           id="g176">
          <g
             id="g178">
            <g
               style="font-size:1270px;font-weight:700;font-family:Lucida Sans Typewriter embedded"
               id="g180">
              <g
                 style="fill:#000000;stroke:none"
                 id="g182">
                <text
                   id="text184">
                  <tspan
                     x="7369"
                     y="20115"
                     id="tspan186">Ф</tspan>
                </text>
              </g>
            </g>
          </g>
        </g>
      </g>
      <g
         id="g188">
        <desc
           id="desc190">Group</desc>
        <g
           id="g192">
          <desc
             id="desc194">Drawing</desc>
          <g
             id="g196">
            <g
               style="fill:#000000;stroke:none"
               id="g198">
              <path
                 d="M 3250,22500 L 3471,21993 L 3731,22227 L 3250,22500 z "
                 id="path200" />
              <path
                 d="M 7787,17533 L 3568,22221 L 3494,22154 L 7713,17467 L 7787,17533 z "
                 id="path202" />
            </g>
            <g
               id="g204" />
          </g>
        </g>
        <g
           id="g206">
          <desc
             id="desc208">Drawing</desc>
          <g
             id="g210">
            <g
               style="fill:#000000;stroke:none"
               id="g212">
              <path
                 d="M 7779,17460 L 11904,20460 L 11846,20540 L 7721,17540 L 7779,17460 z "
                 id="path214" />
            </g>
            <g
               id="g216" />
          </g>
        </g>
        <g
           id="g218">
          <desc
             id="desc220">Drawing</desc>
          <g
             id="g222">
            <g
               style="fill:#000000;stroke:none"
               id="g224">
              <path
                 d="M 17875,17500 L 17350,17675 L 17350,17325 L 17875,17500 z "
                 id="path226" />
              <path
                 d="M 7750,17450 L 17455,17450 L 17455,17550 L 7750,17550 L 7750,17450 z "
                 id="path228" />
            </g>
            <g
               id="g230" />
          </g>
        </g>
        <g
           id="g232">
          <desc
             id="desc234">Drawing</desc>
          <g
             id="g236">
            <g
               style="fill:#000000;stroke:none"
               id="g238">
              <path
                 d="M 7750,5625 L 7925,6150 L 7575,6150 L 7750,5625 z "
                 id="path240" />
              <path
                 d="M 7700,17500 L 7700,6045 L 7800,6045 L 7800,17500 L 7700,17500 z "
                 id="path242" />
            </g>
            <g
               id="g244" />
          </g>
        </g>
        <g
           id="g246">
          <desc
             id="desc248">Drawing</desc>
          <g
             id="g250">
            <g
               style="fill:#000000;stroke:none"
               id="g252">
              <path
                 d="M 11829,12619 L 11784,12606 L 11739,12584 L 11698,12552 L 11666,12511 L 11644,12466 L 11631,12421 L 11625,12374 L 11631,12329 L 11644,12282 L 11666,12237 L 11698,12198 L 11739,12166 L 11784,12144 L 11829,12129 L 11876,12125 L 11921,12129 L 11968,12144 L 12011,12166 L 12052,12198 L 12084,12237 L 12106,12282 L 12119,12329 L 12125,12374 L 12119,12421 L 12106,12466 L 12084,12511 L 12052,12552 L 12011,12584 L 11968,12606 L 11921,12619 L 11876,12625 L 11829,12619 z "
                 id="path254" />
              <path
                 d="M 11925,12575 L 11925,20500 L 11875,20500 L 11825,20500 L 11825,12575 L 11875,12575 L 11925,12575 z "
                 id="path256" />
              <path
                 d="M 11875,20500 L 11875,20500 L 11875,20500 L 11875,20500 L 11875,20500 L 11875,20500 L 11875,20500 z "
                 id="path258" />
            </g>
            <g
               id="g260" />
          </g>
        </g>
        <g
           id="g262">
          <desc
             id="desc264">Drawing</desc>
          <g
             id="g266">
            <g
               style="fill:#000000;stroke:none"
               id="g268">
              <path
                 d="M 9108,18489 L 8717,18880 L 8560,18567 L 9108,18489 z "
                 id="path270" />
              <path
                 d="M 6641,18703 L 6876,18782 L 6860,18830 L 6844,18877 L 6609,18797 L 6625,18750 L 6641,18703 z "
                 id="path272" />
              <path
                 d="M 6860,18830 L 6849,18878 L 6844,18877 L 6860,18830 z "
                 id="path274" />
              <path
                 d="M 6871,18781 L 7105,18834 L 7093,18883 L 7082,18932 L 6849,18878 L 6860,18830 L 6871,18781 z "
                 id="path276" />
              <path
                 d="M 7093,18883 L 7087,18932 L 7082,18932 L 7093,18883 z "
                 id="path278" />
              <path
                 d="M 7100,18833 L 7331,18863 L 7324,18913 L 7318,18962 L 7087,18932 L 7093,18883 L 7100,18833 z "
                 id="path280" />
              <path
                 d="M 7324,18913 L 7322,18962 L 7318,18962 L 7324,18913 z "
                 id="path282" />
              <path
                 d="M 7326,18863 L 7552,18872 L 7550,18922 L 7548,18972 L 7322,18962 L 7324,18913 L 7326,18863 z "
                 id="path284" />
              <path
                 d="M 7550,18922 L 7552,18972 L 7548,18972 L 7550,18922 z "
                 id="path286" />
              <path
                 d="M 7548,18872 L 7767,18863 L 7769,18913 L 7771,18963 L 7552,18972 L 7550,18922 L 7548,18872 z "
                 id="path288" />
              <path
                 d="M 7769,18913 L 7775,18963 L 7771,18963 L 7769,18913 z "
                 id="path290" />
              <path
                 d="M 7764,18864 L 7973,18840 L 7979,18890 L 7984,18940 L 7775,18963 L 7769,18913 L 7764,18864 z "
                 id="path292" />
              <path
                 d="M 7979,18890 L 7987,18939 L 7984,18940 L 7979,18890 z "
                 id="path294" />
              <path
                 d="M 7970,18841 L 8168,18806 L 8177,18855 L 8186,18904 L 7987,18939 L 7979,18890 L 7970,18841 z "
                 id="path296" />
              <path
                 d="M 8177,18855 L 8189,18904 L 8186,18904 L 8177,18855 z "
                 id="path298" />
              <path
                 d="M 8165,18806 L 8350,18762 L 8362,18811 L 8373,18860 L 8189,18904 L 8177,18855 L 8165,18806 z "
                 id="path300" />
              <path
                 d="M 8362,18811 L 8377,18859 L 8373,18860 L 8362,18811 z "
                 id="path302" />
              <path
                 d="M 8347,18764 L 8668,18661 L 8683,18708 L 8698,18756 L 8377,18859 L 8362,18811 L 8347,18764 z "
                 id="path304" />
              <path
                 d="M 8683,18708 L 8703,18754 L 8698,18756 L 8683,18708 z "
                 id="path306" />
              <path
                 d="M 8664,18662 L 8724,18636 L 8744,18682 L 8764,18728 L 8703,18754 L 8683,18708 L 8664,18662 z "
                 id="path308" />
            </g>
            <g
               id="g310" />
          </g>
        </g>
      </g>
    </g>
  </g>
</svg>
